# xmcd
#
# Track frame offsets:
#	150
#	11002
#	20402
#	33652
#	45940
#	59627
#	69847
#	81542
#	92560
#	103270
#	115617
#	125615
#	134832
#	144682
#
# Disc length: 2069 seconds
#
# Revision: 1
# Processed by: cddbd v1.5.2PL0 Copyright (c) Steve Scherf et al.
# Submitted via: EasyCDDAExtractor 15.2.5.1
#
DISCID=c808130e
DTITLE=Hank Locklin - Please Help Me, I'm Falling
DYEAR=1997
DGENRE=Country
TTITLE0=Please Help Me, I'm Falling
TTITLE1=My Old Home Town
TTITLE2=(I'm So Tired Of) Goin' Home All By Myself
TTITLE3=It's A Little More Like Heaven
TTITLE4=Livin' Alone
TTITLE5=Seven Days (The Humming Song)
TTITLE6=Send Me The Pillow You Dream On
TTITLE7=Blues In Advance
TTITLE8=Why Don't You Haul Off And Love Me
TTITLE9=When The Band Plays The Blues
TTITLE10=Hiding In My Heart
TTITLE11=Foreign Car
TTITLE12=Geisha Girl
TTITLE13=One Has My Name (The Other Has My Heart)
EXTD=
EXTT0=
EXTT1=
EXTT2=
EXTT3=
EXTT4=
EXTT5=
EXTT6=
EXTT7=
EXTT8=
EXTT9=
EXTT10=
EXTT11=
EXTT12=
EXTT13=
PLAYORDER=
